<svg xmlns="http://www.w3.org/2000/svg" enable-background="new 0 0 256 256" viewBox="0 0 256 256" id="s"><radialGradient id="a" cx="127.8" cy="128.05" r="62.964" gradientUnits="userSpaceOnUse"><stop offset=".001" stop-color="#48c5ff"></stop><stop offset=".998" stop-color="#3a60dd"></stop></radialGradient><path fill="url(#a)" d="M84.2,166.1c3.7,4.1,10,7.2,19.1,9.5s18.3,3.3,27.6,3.1c9.4-0.2,16.5-1.7,21.5-4.5c5.6-2.4,9.1-6.5,10.6-12.4
	c0.4-5.3-3.6-10.3-12-14.8c-3.2-1.6-7.7-3.6-13.6-6c-5.9-2.3-11.5-4.4-16.8-6.3c-5.3-1.8-11-4.2-16.9-7.1c-6-2.9-11.1-5.9-15.4-9
	s-7.9-6.9-10.7-11.5c-2.9-4.6-4.3-9.5-4.3-14.8c0-4.9,1.3-9.2,3.9-12.9c2.6-3.7,5.8-6.5,9.6-8.5c3.8-2,8.3-3.7,13.6-4.9
	c5.3-1.3,10-2.1,14.3-2.5s8.7-0.6,13.3-0.6c2.9,0,5.8,0.1,8.6,0.4c2.9,0.3,5.9,0.7,9.2,1.3c3.3,0.6,6.3,1.4,9.1,2.4s5.5,2.2,8.2,3.7
	s4.9,3.3,6.7,5.2c1.8,2,3.3,4.3,4.3,7.1c1,2.8,1.5,5.9,1.3,9.3c-0.1,2.9-1,5.4-2.7,7.5c-1.6,2.1-3.6,3.4-6,3.9
	c-2.3,0.5-4.7,0.5-6.9,0c-2.3-0.5-4.2-1.8-5.8-3.8s-2.3-4.6-2.2-7.6c0.4-11-7.6-16.5-23.9-16.3c-1.5,0-3.1,0.1-4.8,0.2
	c-1.7,0.1-3.7,0.4-6.1,0.8c-2.3,0.4-4.4,0.9-6.3,1.5c-1.8,0.6-3.5,1.6-5,2.8c-1.5,1.2-2.4,2.6-2.7,4.1c-0.5,2,0,4.1,1.6,6.3
	c1.6,2.2,3.5,4.1,5.9,5.7c2.3,1.6,5.1,3.3,8.4,4.8c3.2,1.6,6,2.8,8.2,3.7c2.2,0.9,4.2,1.6,6,2.3c6.5,2.3,11.5,4.1,15.2,5.5
	s8.5,3.6,14.3,6.7c5.9,3,10.4,6.1,13.6,9.2c3.2,3.1,6,7.2,8.5,12.2s3.8,10.4,3.8,16.2c0,4.9-0.9,9.3-2.8,13.2
	c-1.8,3.9-4.4,7-7.8,9.5c-3.4,2.5-7,4.6-10.8,6.3c-3.9,1.7-8.2,3-13.1,3.9c-4.9,0.9-9.3,1.5-13.4,1.8c-4.1,0.3-8.3,0.5-12.7,0.5
	c-4.9,0-9.9-0.3-14.9-1c-5-0.6-10.3-1.8-16-3.4c-5.6-1.6-10.6-3.7-14.9-6.2s-7.9-5.9-10.7-10.2c-2.9-4.3-4.3-9.1-4.3-14.4
	c0.3-3.8,1.2-7.4,2.9-10.7c1.6-3.4,3.8-6.3,6.6-8.8c2.7-2.5,5.9-4.6,9.4-6.1c8.1-3.3,14.4-2.3,19,2.8c3.4,3.9,4.3,8.3,2.7,13.1
	c-2,5.8-7.1,8.5-15.2,8.2c-0.5,0-1-0.1-1.5-0.2c-3.9-0.3-6.7,0.5-8.5,2.4C80.9,160.4,81.4,162.9,84.2,166.1z"></path></svg>